<svg width="16" height="16" version="1.1" viewBox="0 0 16 16" xmlns="http://www.w3.org/2000/svg">
 <g transform="matrix(.5 0 0 .5 -.19395 .11415)">
  <path d="m8.7949 2.1797c-1.108 0-2 0.892-2 2v23.184c0 1.108 0.892 2 2 2h15.186c1.108 0 2-0.892 2-2v-23.184c0-1.108-0.892-2-2-2zm-1.4062 0.71484h18v4h-18zm0 5.1387h18v4h-18zm0 5.1367h18v4h-18zm0 5.1387h18v4h-18z" fill="#5382a1" stroke="#5382a1" stroke-linejoin="round" stroke-width=".8156"/>
  <rect x="7.3879" y="23.447" width="18" height="4" rx="0" ry="0" fill="#f89820"/>
 </g>
</svg>
